<svg xmlns="http://www.w3.org/2000/svg" width="142" height="48" viewBox="0 0 142 48" font-family="-apple-system,BlinkMacSystemFont,'Segoe UI','Noto Sans',Helvetica,Arial,sans-serif"><style>.m{font-family:ui-monospace,SFMono-Regular,'SF Mono',Menlo,Consolas,'Liberation Mono',monospace}</style><rect x="0.5" y="0.5" width="141" height="47" rx="12" fill="#161B22" stroke="#262D38"/><g transform="translate(22,14) scale(0.8333333333333334)" fill="none" stroke="#F97316" stroke-width="2.40" stroke-linecap="round" stroke-linejoin="round"><path d="M21 8a2 2 0 0 0-1-1.73l-7-4a2 2 0 0 0-2 0l-7 4A2 2 0 0 0 3 8v8a2 2 0 0 0 1 1.73l7 4a2 2 0 0 0 2 0l7-4A2 2 0 0 0 21 16Z"/><path d="m3.3 7 8.7 5 8.7-5"/><path d="M12 22V12"/></g><text x="54" y="30" font-size="16" font-weight="600" fill="#E6EDF3">Portaliva</text></svg>