<svg xmlns="http://www.w3.org/2000/svg" width="520" height="354" viewBox="0 0 520 354" font-family="-apple-system,BlinkMacSystemFont,'Segoe UI','Noto Sans',Helvetica,Arial,sans-serif"><style>.m{font-family:ui-monospace,SFMono-Regular,'SF Mono',Menlo,Consolas,'Liberation Mono',monospace}</style><defs><linearGradient id="g" x1="0" y1="0" x2="0" y2="1"><stop offset="0" stop-color="#FFFFFF"/><stop offset="1" stop-color="#FFF7F0"/></linearGradient></defs><rect x="0.5" y="0.5" width="519" height="353" rx="16" fill="url(#g)" stroke="#D8DEE4"/><rect x="30" y="0.5" width="56" height="3" rx="1.5" fill="#EA580C"/><rect x="30" y="30" width="48" height="48" rx="12" fill="#EA580C14"/><g transform="translate(42,42) scale(1.0)" fill="none" stroke="#EA580C" stroke-width="1.80" stroke-linecap="round" stroke-linejoin="round"><path d="M20 13c0 5-3.5 7.5-7.66 8.95a1 1 0 0 1-.67-.01C7.5 20.5 4 18 4 13V6a1 1 0 0 1 1-1c2 0 4.5-1.2 6.24-2.72a1.17 1.17 0 0 1 1.52 0C14.51 3.81 17 5 19 5a1 1 0 0 1 1 1z"/><path d="m9 12 2 2 4-4"/></g><text x="94" y="62" font-size="21" font-weight="700" letter-spacing="-0.2" fill="#1F2328">Kimlik, Yetki &amp; Güvenlik</text><text class="m" x="490" y="60" text-anchor="end" font-size="14" fill="#818B98">05</text><text x="30" y="110" font-size="16" fill="#59636E">JWT + e-posta ile tek kullanımlık kod (OTP) girişi, rol ve menü</text><text x="30" y="134" font-size="16" fill="#59636E">bazlı yetki, AES-256-GCM ile şifreli veri, Nginx + ModSecurity</text><text x="30" y="158" font-size="16" fill="#59636E">WAF yapılandırması.</text><line x1="30" y1="186" x2="490" y2="186" stroke="#D8DEE4" stroke-dasharray="3 5"/><text x="30" y="216" font-size="12" font-weight="700" letter-spacing="1.4" fill="#EA580C">ÖĞRENDİM</text><text x="30" y="240" font-size="15" fill="#1F2328">WAF yanlış pozitiflerini güvenliği zayıflatmadan çözmek.</text><rect x="30" y="298" width="58.4" height="26" rx="13.0" fill="#F6F8FA" stroke="#D8DEE4"/><circle cx="43" cy="311.0" r="3" fill="#EA580C"/><text x="52.0" y="315.7" font-size="13" fill="#59636E">JWT</text><rect x="96.429" y="298" width="62.8" height="26" rx="13.0" fill="#F6F8FA" stroke="#D8DEE4"/><circle cx="109.429" cy="311.0" r="3" fill="#EA580C"/><text x="118.4" y="315.7" font-size="13" fill="#59636E">Nginx</text><rect x="167.1805" y="298" width="101.9" height="26" rx="13.0" fill="#F6F8FA" stroke="#D8DEE4"/><circle cx="180.1805" cy="311.0" r="3" fill="#EA580C"/><text x="189.2" y="315.7" font-size="13" fill="#59636E">ModSecurity</text></svg>