<svg xmlns="http://www.w3.org/2000/svg" width="520" height="378" viewBox="0 0 520 378" font-family="-apple-system,BlinkMacSystemFont,'Segoe UI','Noto Sans',Helvetica,Arial,sans-serif"><style>.m{font-family:ui-monospace,SFMono-Regular,'SF Mono',Menlo,Consolas,'Liberation Mono',monospace}</style><defs><linearGradient id="g" x1="0" y1="0" x2="0" y2="1"><stop offset="0" stop-color="#0F141B"/><stop offset="1" stop-color="#111720"/></linearGradient></defs><rect x="0.5" y="0.5" width="519" height="377" rx="16" fill="url(#g)" stroke="#262D38"/><rect x="30" y="0.5" width="56" height="3" rx="1.5" fill="#F97316"/><rect x="30" y="30" width="48" height="48" rx="12" fill="#F973161F"/><g transform="translate(42,42) scale(1.0)" fill="none" stroke="#F97316" stroke-width="1.80" stroke-linecap="round" stroke-linejoin="round"><path d="m12 2 10 5-10 5L2 7Z"/><path d="m2 17 10 5 10-5"/><path d="m2 12 10 5 10-5"/></g><text x="94" y="62" font-size="21" font-weight="700" letter-spacing="-0.2" fill="#E6EDF3">Background Jobs &amp; Services</text><text class="m" x="490" y="60" text-anchor="end" font-size="14" fill="#6E7681">10</text><text x="30" y="110" font-size="16" fill="#8B949E">Scheduled tasks with Celery + Beat, separate services with</text><text x="30" y="134" font-size="16" fill="#8B949E">FastAPI / Flask, Redis caching, role-based announcements and</text><text x="30" y="158" font-size="16" fill="#8B949E">automated email, browser automation with Selenium.</text><line x1="30" y1="210" x2="490" y2="210" stroke="#262D38" stroke-dasharray="3 5"/><text x="30" y="240" font-size="12" font-weight="700" letter-spacing="1.4" fill="#F97316">WHAT I LEARNED</text><text x="30" y="264" font-size="15" fill="#E6EDF3">Moving long-running work to the background without making users</text><text x="30" y="286" font-size="15" fill="#E6EDF3">wait.</text><rect x="30" y="322" width="77.7" height="26" rx="13.0" fill="#161B22" stroke="#262D38"/><circle cx="43" cy="335.0" r="3" fill="#F97316"/><text x="52.0" y="339.7" font-size="13" fill="#8B949E">FastAPI</text><rect x="115.695" y="322" width="62.8" height="26" rx="13.0" fill="#161B22" stroke="#262D38"/><circle cx="128.695" cy="335.0" r="3" fill="#F97316"/><text x="137.7" y="339.7" font-size="13" fill="#8B949E">Redis</text><rect x="186.44650000000001" y="322" width="83.1" height="26" rx="13.0" fill="#161B22" stroke="#262D38"/><circle cx="199.44650000000001" cy="335.0" r="3" fill="#F97316"/><text x="208.4" y="339.7" font-size="13" fill="#8B949E">Selenium</text></svg>