<svg xmlns="http://www.w3.org/2000/svg" width="520" height="378" viewBox="0 0 520 378" font-family="-apple-system,BlinkMacSystemFont,'Segoe UI','Noto Sans',Helvetica,Arial,sans-serif"><style>.m{font-family:ui-monospace,SFMono-Regular,'SF Mono',Menlo,Consolas,'Liberation Mono',monospace}</style><defs><linearGradient id="g" x1="0" y1="0" x2="0" y2="1"><stop offset="0" stop-color="#0F141B"/><stop offset="1" stop-color="#111720"/></linearGradient></defs><rect x="0.5" y="0.5" width="519" height="377" rx="16" fill="url(#g)" stroke="#262D38"/><rect x="30" y="0.5" width="56" height="3" rx="1.5" fill="#F97316"/><rect x="30" y="30" width="48" height="48" rx="12" fill="#F973161F"/><g transform="translate(42,42) scale(1.0)" fill="none" stroke="#F97316" stroke-width="1.80" stroke-linecap="round" stroke-linejoin="round"><circle cx="11" cy="11" r="8"/><path d="m21 21-4.3-4.3"/></g><text x="94" y="62" font-size="21" font-weight="700" letter-spacing="-0.2" fill="#E6EDF3">Audit Modules</text><text class="m" x="490" y="60" text-anchor="end" font-size="14" fill="#6E7681">04</text><text x="30" y="110" font-size="16" fill="#8B949E">Counterparty cross-checks (year-based GİB thresholds), risky</text><text x="30" y="134" font-size="16" fill="#8B949E">taxpayer tracking, audit findings, trial balance &amp; balance sheet</text><text x="30" y="158" font-size="16" fill="#8B949E">audit, financial ratios, depreciation generator.</text><line x1="30" y1="210" x2="490" y2="210" stroke="#262D38" stroke-dasharray="3 5"/><text x="30" y="240" font-size="12" font-weight="700" letter-spacing="1.4" fill="#F97316">WHAT I LEARNED</text><text x="30" y="264" font-size="15" fill="#E6EDF3">Clarifying business rules with domain experts while turning</text><text x="30" y="286" font-size="15" fill="#E6EDF3">regulations into code.</text><rect x="30" y="322" width="104.2" height="26" rx="13.0" fill="#161B22" stroke="#262D38"/><circle cx="43" cy="335.0" r="3" fill="#F97316"/><text x="52.0" y="339.7" font-size="13" fill="#8B949E">Django REST</text><rect x="142.2475" y="322" width="64.0" height="26" rx="13.0" fill="#161B22" stroke="#262D38"/><circle cx="155.2475" cy="335.0" r="3" fill="#F97316"/><text x="164.2" y="339.7" font-size="13" fill="#8B949E">React</text><rect x="214.234" y="322" width="91.5" height="26" rx="13.0" fill="#161B22" stroke="#262D38"/><circle cx="227.234" cy="335.0" r="3" fill="#F97316"/><text x="236.2" y="339.7" font-size="13" fill="#8B949E">Ant Design</text></svg>