<svg xmlns="http://www.w3.org/2000/svg" width="1100" height="314" viewBox="0 0 1100 314" font-family="-apple-system,BlinkMacSystemFont,'Segoe UI','Noto Sans',Helvetica,Arial,sans-serif"><style>.m{font-family:ui-monospace,SFMono-Regular,'SF Mono',Menlo,Consolas,'Liberation Mono',monospace}</style><defs><radialGradient id="gg" cx="1" cy="0" r="0.75"><stop offset="0" stop-color="#7C3AED" stop-opacity="0.12"/><stop offset="1" stop-color="#7C3AED" stop-opacity="0"/></radialGradient><linearGradient id="lg" x1="0" y1="0" x2="1" y2="1"><stop offset="0" stop-color="#C4B5FD"/><stop offset="1" stop-color="#6D28D9"/></linearGradient></defs><rect x="0.5" y="0.5" width="1099" height="313" rx="20" fill="#FFFFFF" stroke="#D8DEE4"/><rect x="0.5" y="0.5" width="1099" height="313" rx="20" fill="url(#gg)"/><rect x="934" y="32" width="10" height="10" rx="2" fill="#7C3AED" opacity="0.18"/><rect x="934" y="46" width="10" height="10" rx="2" fill="#7C3AED" opacity="0.1"/><rect x="934" y="60" width="10" height="10" rx="2" fill="#7C3AED" opacity="0.1"/><rect x="934" y="74" width="10" height="10" rx="2" fill="#7C3AED" opacity="0.1"/><rect x="948" y="46" width="10" height="10" rx="2" fill="#7C3AED" opacity="0.1"/><rect x="948" y="60" width="10" height="10" rx="2" fill="#7C3AED" opacity="0.1"/><rect x="948" y="74" width="10" height="10" rx="2" fill="#7C3AED" opacity="0.45"/><rect x="962" y="32" width="10" height="10" rx="2" fill="#7C3AED" opacity="0.1"/><rect x="976" y="32" width="10" height="10" rx="2" fill="#7C3AED" opacity="0.45"/><rect x="976" y="46" width="10" height="10" rx="2" fill="#7C3AED" opacity="0.18"/><rect x="976" y="60" width="10" height="10" rx="2" fill="#7C3AED" opacity="0.18"/><rect x="976" y="74" width="10" height="10" rx="2" fill="#7C3AED" opacity="0.18"/><rect x="990" y="32" width="10" height="10" rx="2" fill="#7C3AED" opacity="0.28"/><rect x="990" y="74" width="10" height="10" rx="2" fill="#7C3AED" opacity="0.18"/><rect x="1004" y="32" width="10" height="10" rx="2" fill="#7C3AED" opacity="0.1"/><rect x="1004" y="74" width="10" height="10" rx="2" fill="#7C3AED" opacity="0.45"/><rect x="1018" y="46" width="10" height="10" rx="2" fill="#7C3AED" opacity="0.45"/><rect x="1018" y="60" width="10" height="10" rx="2" fill="#7C3AED" opacity="0.18"/><rect x="1032" y="46" width="10" height="10" rx="2" fill="#7C3AED" opacity="0.28"/><rect x="1032" y="60" width="10" height="10" rx="2" fill="#7C3AED" opacity="0.28"/><rect x="1046" y="32" width="10" height="10" rx="2" fill="#7C3AED" opacity="0.1"/><rect x="1046" y="46" width="10" height="10" rx="2" fill="#7C3AED" opacity="0.45"/><rect x="1046" y="60" width="10" height="10" rx="2" fill="#7C3AED" opacity="0.28"/><rect x="1046" y="74" width="10" height="10" rx="2" fill="#7C3AED" opacity="0.45"/><rect x="40" y="40" width="60" height="60" rx="16" fill="url(#lg)"/><g transform="translate(55,55) scale(1.25)" fill="none" stroke="#FFFFFF" stroke-width="1.60" stroke-linecap="round" stroke-linejoin="round"><circle cx="11" cy="4" r="2"/><circle cx="18" cy="8" r="2"/><circle cx="20" cy="16" r="2"/><path d="M9 10a5 5 0 0 1 5 5v3.5a3.5 3.5 0 0 1-6.84 1.05Q6.52 17.48 4.46 16.84A3.5 3.5 0 0 1 5.5 10Z"/></g><text x="120" y="70" font-size="34" font-weight="800" letter-spacing="-0.8" fill="#1F2328">purr<tspan fill="#7C3AED">2</tspan>play</text><text x="120" y="96" font-size="16" fill="#59636E">My own game brand — alongside software development, I keep making games</text><rect x="303" y="46" width="133" height="28" rx="14" fill="#7C3AED14" stroke="#7C3AED" stroke-opacity="0.4"/><circle cx="318" cy="60" r="4" fill="#7C3AED"><animate attributeName="opacity" values="1;0.25;1" dur="2.4s" repeatCount="indefinite"/></circle><text x="330" y="65" font-size="13" font-weight="600" fill="#7C3AED">In development</text><rect x="40" y="142" width="327" height="132" rx="14" fill="#F6F8FA" stroke="#D8DEE4"/><rect x="60" y="162" width="40" height="40" rx="10" fill="#7C3AED14"/><g transform="translate(69.0,171) scale(0.9166666666666666)" fill="none" stroke="#7C3AED" stroke-width="1.96" stroke-linecap="round" stroke-linejoin="round"><path d="m16 18 6-6-6-6"/><path d="m8 6-6 6 6 6"/></g><text x="114" y="188" font-size="18" font-weight="700" fill="#1F2328">Tech</text><text x="60" y="232" font-size="15" fill="#59636E">First game built with JavaScript; now</text><text x="60" y="253" font-size="15" fill="#59636E">mostly Python</text><rect x="387" y="142" width="327" height="132" rx="14" fill="#F6F8FA" stroke="#D8DEE4"/><rect x="407" y="162" width="40" height="40" rx="10" fill="#7C3AED14"/><g transform="translate(415.6666666666667,171) scale(0.9166666666666666)" fill="none" stroke="#7C3AED" stroke-width="1.96" stroke-linecap="round" stroke-linejoin="round"><rect width="20" height="14" x="2" y="3" rx="2"/><path d="M8 21h8"/><path d="M12 17v4"/></g><text x="461" y="188" font-size="18" font-weight="700" fill="#1F2328">Platform</text><text x="407" y="232" font-size="15" fill="#59636E">PC — targeting Steam and itch.io</text><rect x="733" y="142" width="327" height="132" rx="14" fill="#F6F8FA" stroke="#D8DEE4"/><rect x="753" y="162" width="40" height="40" rx="10" fill="#7C3AED14"/><g transform="translate(762.3333333333334,171) scale(0.9166666666666666)" fill="none" stroke="#7C3AED" stroke-width="1.96" stroke-linecap="round" stroke-linejoin="round"><circle cx="12" cy="12" r="10"/><path d="M12 6v6l4 2"/></g><text x="807" y="188" font-size="18" font-weight="700" fill="#1F2328">Status</text><text x="753" y="232" font-size="15" fill="#59636E">New games currently in development</text></svg>